<svg xmlns="http://www.w3.org/2000/svg" fill="currentColor" viewBox="0 0 60 60"><g clip-path="url(#a)"><path d="M47.25 6.71a28.7 28.7 0 0 0-17.21-5.68c-5.7 0-11.35 1.64-15.56 4.45V1.03a1.03 1.03 0 0 0-2.07 0v6.51a1.03 1.03 0 0 0 1.7.8C18.05 5.06 24 3.1 30.04 3.1c5.8 0 11.32 1.83 15.98 5.27a1.03 1.03 0 0 0 1.44-.21c.34-.46.25-1.1-.21-1.45m11.72 5.7h-6.51a1.03 1.03 0 0 0-.8 1.7c3.28 3.95 5.24 9.9 5.24 15.93 0 5.8-1.83 11.32-5.27 15.98a1.03 1.03 0 1 0 1.66 1.23 28.7 28.7 0 0 0 5.68-17.2c0-5.7-1.64-11.36-4.45-15.57h4.45a1.03 1.03 0 0 0 0-2.07M47 51.52c-.37-.17-.8-.11-1.1.14-3.95 3.28-9.9 5.24-15.94 5.24-5.8 0-11.32-1.83-15.98-5.27a1.03 1.03 0 1 0-1.23 1.66 28.7 28.7 0 0 0 17.21 5.68c5.7 0 11.35-1.64 15.56-4.45v4.45a1.03 1.03 0 0 0 2.07 0v-6.51c0-.4-.24-.77-.6-.94M8.34 45.9C5.06 41.94 3.1 36 3.1 29.95c0-5.8 1.83-11.32 5.27-15.98a1.03 1.03 0 1 0-1.66-1.23 28.7 28.7 0 0 0-5.68 17.21c0 5.7 1.64 11.35 4.45 15.56H1.03a1.03 1.03 0 0 0 0 2.07h6.51a1.03 1.03 0 0 0 .8-1.7m22.69-26.23a1.03 1.03 0 1 0-2.06.01L28.99 30c0 .57.46 1.03 1.03 1.03s1.04-.46 1.04-1.03z"/><path d="M30.02 28.97H23.8a1.03 1.03 0 0 0 0 2.06h6.23a1.03 1.03 0 0 0 0-2.06"/><path d="M30 8.28A21.75 21.75 0 0 0 8.28 30 21.75 21.75 0 0 0 30 51.72 21.75 21.75 0 0 0 51.72 30 21.75 21.75 0 0 0 30 8.28m0 41.38A19.7 19.7 0 0 1 10.34 30 19.7 19.7 0 0 1 30 10.34 19.7 19.7 0 0 1 49.66 30 19.7 19.7 0 0 1 30 49.66"/><path d="M15.52 28.97h-2.07a1.03 1.03 0 0 0 0 2.06h2.07a1.03 1.03 0 0 0 0-2.06m31.03 0h-2.07a1.03 1.03 0 0 0 0 2.06h2.07a1.03 1.03 0 0 0 0-2.06M30 43.45c-.57 0-1.03.46-1.03 1.03v2.07a1.03 1.03 0 0 0 2.06 0v-2.07c0-.57-.46-1.03-1.03-1.03m0-31.04c-.57 0-1.03.47-1.03 1.04v2.07a1.03 1.03 0 0 0 2.06 0v-2.07c0-.57-.46-1.04-1.03-1.04m-9.61 27.2c-.4-.4-1.06-.4-1.47 0l-1.36 1.36a1.04 1.04 0 0 0 1.47 1.46l1.36-1.35c.4-.4.4-1.06 0-1.47m22.04-22.04c-.4-.4-1.05-.4-1.46 0l-1.36 1.35a1.03 1.03 0 1 0 1.47 1.47l1.35-1.36c.4-.4.4-1.06 0-1.46m0 23.4-1.35-1.36a1.03 1.03 0 1 0-1.47 1.47l1.36 1.35a1.03 1.03 0 0 0 1.46 0c.4-.4.4-1.05 0-1.46M20.39 18.92l-1.36-1.35a1.03 1.03 0 1 0-1.47 1.46l1.36 1.36a1.03 1.03 0 0 0 1.47 0c.4-.4.4-1.06 0-1.47"/></g><defs><clipPath id="a"><path d="M0 0h60v60H0z"/></clipPath></defs></svg>
