<svg xmlns="http://www.w3.org/2000/svg" width="60" height="60" fill="currentColor" viewBox="0 0 60 60"><path d="M33 41h-6a1 1 0 0 0 0 2h6a1 1 0 0 0 0-2M56 1H4a4 4 0 0 0-4 4v33a1 1 0 0 0 1 1h58a1 1 0 0 0 1-1V5a4 4 0 0 0-4-4m2 36H2V5c0-1.1.9-2 2-2h52a2 2 0 0 1 2 2z"/><path d="M59 37H1a1 1 0 0 0-1 1v5a4 4 0 0 0 4 4h52a4 4 0 0 0 4-4v-5a1 1 0 0 0-1-1m-1 6a2 2 0 0 1-2 2H4a2 2 0 0 1-2-2v-4h56z"/><path d="M55 5H5a1 1 0 0 0-1 1v32a1 1 0 0 0 1 1h50a1 1 0 0 0 1-1V6a1 1 0 0 0-1-1m-1 32H6V7h48zM43 53H17a3 3 0 0 0 0 6h26a3 3 0 0 0 0-6m0 4H17a1 1 0 0 1 0-2h26a1 1 0 0 1 0 2"/><path d="M41 53q-4.99-.01-5-7a1 1 0 0 0-1-1H25a1 1 0 0 0-1 1q-.01 6.99-5 7a1 1 0 0 0 0 2h22a1 1 0 0 0 0-2m-17.13 0c1.23-1.36 1.96-3.4 2.1-6h8.06c.14 2.6.87 4.64 2.1 6zm23.91-22.54-2.41-2.41 1.34-1.34a1 1 0 0 0-.42-1.67l-10-3a1 1 0 0 0-1.24 1.25l3 10a1 1 0 0 0 1.66.42l1.42-1.42 2.41 2.42a1 1 0 0 0 1.42 0l2.82-2.83a1 1 0 0 0 0-1.42m-3.53 2.13-2.2-2.2a1.3 1.3 0 0 0-1.84 0l-.73.72-1.98-6.62 6.61 1.99-.77.77a1.13 1.13 0 0 0 0 1.6l2.32 2.32zM42 9H14a1 1 0 0 0-1 1v5a1 1 0 0 0 1 1h28a1 1 0 0 0 1-1v-5a1 1 0 0 0-1-1m-1 5H15v-3h26zm-15 6h-8a1 1 0 0 0-1 1v4a1 1 0 0 0 1 1h8a1 1 0 0 0 1-1v-4a1 1 0 0 0-1-1m-1 4h-6v-2h6z"/><path d="M42 9H14a1 1 0 0 0-1 1v19a1 1 0 0 0 1 1h23.8a1 1 0 0 0 .96-1.29L37.5 24.5l4.21 1.27A1 1 0 0 0 43 24.8V10a1 1 0 0 0-1-1m-1 14.45-4.7-1.4a1 1 0 0 0-1.25 1.24L36.46 28H15V11h26z"/></svg>
