<svg xmlns="http://www.w3.org/2000/svg" fill="currentColor" viewBox="0 0 128 30"><path d="M27.38 6.53A15 15 0 0 0 .41 18.5l7.64-7.64a1.87 1.87 0 0 1 2.65 0l6.18 6.18z"/><path d="M29.16 10.05 18.2 21.01c-.73.74-1.92.74-2.65 0l-6.18-6.17L1.9 22.3a15 15 0 0 0 27.26-12.26M47.1 18.8h-3.9l-.68 2.2h-3.04L43.8 9.18h2.68L50.86 21H47.8zm-3.22-2.2h2.54l-1.27-4.1zM61.6 21h-2.84l-4.19-7.35V21h-2.84V9.18h2.84l4.19 7.36V9.18h2.84zm8.66-2.2h-3.9l-.69 2.2h-3.04l4.33-11.82h2.68L74.01 21h-3.06zm-3.22-2.2h2.54l-1.28-4.1zm10.69 2.2h4.96V21h-7.81V9.18h2.85zm8.21-4.49 2.18-5.13h3.07l-3.8 7.57V21h-2.9v-4.25l-3.8-7.57h3.07zm15.54-2.93h-3.55V21h-2.85v-9.62H91.6v-2.2h9.88zm4.24 9.62h-2.84V9.18h2.84zm11.55-4a4.02 4.02 0 0 1-2.38 3.64 6 6 0 0 1-2.51.52q-2.33 0-3.67-1.52-1.34-1.51-1.34-4.28v-.59q0-1.73.6-3.03A4.6 4.6 0 0 1 112.35 9q2.15 0 3.46 1.14 1.3 1.13 1.48 3.11h-2.84q-.03-1.08-.54-1.55t-1.56-.47q-1.07 0-1.56.8-.5.8-.52 2.54v.84q0 1.89.47 2.7.48.81 1.64.81.99 0 1.5-.46.52-.46.55-1.47zm7.44.86q0-.62-.44-.98-.44-.34-1.56-.72-1.1-.37-1.81-.72-2.3-1.13-2.3-3.1 0-.98.57-1.73.57-.76 1.62-1.17a6.3 6.3 0 0 1 4.64.03q1.01.46 1.57 1.3t.56 1.92h-2.84q0-.73-.45-1.12a1.7 1.7 0 0 0-1.19-.4q-.75 0-1.21.34-.44.33-.44.85 0 .45.49.83t1.71.76q1.23.4 2.02.85 1.9 1.1 1.91 3.04 0 1.56-1.17 2.44a5.2 5.2 0 0 1-3.2.88q-1.44 0-2.61-.5a4 4 0 0 1-1.75-1.42q-.6-.9-.59-2.07h2.86q0 .95.49 1.4.5.45 1.6.45.7 0 1.1-.3.42-.31.42-.86"/></svg>
