<svg xmlns="http://www.w3.org/2000/svg" fill="none" viewBox="0 0 128 30"><path fill="#ef2a82" d="M27.4 6.5a15 15 0 0 0-27 12L8 10.9c.8-.8 2-.8 2.7 0l6.2 6.1z"/><path fill="#ef2a82" d="m29.2 10-11 11c-.7.7-2 .7-2.7 0l-6.1-6.2-7.5 7.5a15 15 0 0 0 27.3-12.2"/><path fill="#fff" d="M47.1 18.8h-3.9l-.7 2.2h-3l4.3-11.8h2.7L50.9 21h-3.1zM44 16.6h2.5l-1.3-4.1zM61.6 21h-2.8l-4.2-7.4V21h-2.9V9.2h2.9l4.2 7.3V9.2h2.8zm8.7-2.2h-4l-.6 2.2h-3L67 9.2h2.6L74 21h-3zM67 16.6h2.6l-1.3-4.1zm10.7 2.2h5V21h-7.8V9.2h2.8zm8.3-4.5 2-5.1h3l-3.7 7.6V21h-2.9v-4.2l-3.8-7.6h3zm15.5-2.9h-3.6V21h-2.8v-9.6h-3.5V9.2h9.9zm4.2 9.6H103V9.2h2.8zm11.6-4q0 1.2-.7 2.2a4 4 0 0 1-1.7 1.4q-1.1.6-2.5.6-2.4 0-3.7-1.6-1.3-1.5-1.3-4.2v-.6q0-1.8.6-3a5 5 0 0 1 4.3-2.8 5 5 0 0 1 3.5 1.1q1.4 1.2 1.5 3.2h-2.8q0-1.2-.6-1.6t-1.6-.5q-1 0-1.5.8t-.5 2.6v.8q0 2 .4 2.7.6.9 1.7.8.9 0 1.5-.4t.5-1.5zm7.4.9q0-.7-.4-1t-1.6-.7l-1.8-.8q-2.3-1-2.3-3 0-1 .6-1.8.6-.7 1.6-1.2a6 6 0 0 1 4.6 0q1 .6 1.6 1.4t.6 1.9h-2.9q0-.8-.4-1.1t-1.2-.4l-1.2.3a1 1 0 0 0-.5.9q0 .4.5.8l1.7.8q1.2.3 2 .8 2 1 2 3 0 1.5-1.2 2.5t-3.2.9q-1.4 0-2.6-.5a4 4 0 0 1-1.8-1.5q-.6-1-.6-2h2.9q0 .9.5 1.4t1.6.4q.7 0 1.1-.3t.4-.8"/></svg>
