<svg xmlns="http://www.w3.org/2000/svg" fill="currentColor" viewBox="0 0 60 60"><g clip-path="url(#a)"><path d="M19.06 23.4a1 1 0 0 0-.82-.55l-8.41-.56a1 1 0 0 0-1 .63l-6.07 15.5a1 1 0 0 0 1.54 1.16l5.03-3.77 2.93.58a1 1 0 0 0 1.13-.62 65 65 0 0 1 5.63-11.4 1 1 0 0 0 .04-.98m-7.23 10.87-2.55-.51a1 1 0 0 0-.8.18l-2.57 1.93 4.51-11.54 6.04.4a68 68 0 0 0-4.63 9.54m25.88 15.91-.56-8.4a1 1 0 0 0-1.53-.79 65 65 0 0 1-11.4 5.63 1 1 0 0 0-.61 1.13l.58 2.93-3.77 5.03a1 1 0 0 0 1.16 1.54l15.5-6.07a1 1 0 0 0 .63-1M24.13 54.1l1.93-2.58a1 1 0 0 0 .18-.8l-.51-2.54q5.11-2.02 9.54-4.63l.4 6.03zM29 30h-6.74a1 1 0 0 0-.87.51l-8.46 15.2a1 1 0 0 0 1.4 1.34l15.19-9.2A1 1 0 0 0 30 37v-6a1 1 0 0 0-1-1m-1 6.44-11.5 6.95L22.85 32H28z"/><path d="M59.95.96a1 1 0 0 0-.91-.91c-.34-.03-33.26-2.33-47.52 35a1 1 0 0 0 .23 1.07l4.75 4.75a1 1 0 0 0 1.59-.22L22.85 32H28v4.45l-8.7 5.5a1 1 0 0 0-.18 1.55l4.76 4.75a1 1 0 0 0 1.06.23C62.28 34.22 59.98 1.29 59.94.96M54.7 18.7c-3.5 8.7-11.53 20.5-29.87 27.68l-3.4-3.41 8.1-5.12A1 1 0 0 0 30 37v-6a1 1 0 0 0-1-1h-6.74a1 1 0 0 0-.88.52l-4.4 8-3.36-3.35C26.14 3.25 52.81 1.94 58 2c.04 2.34-.18 9-3.29 16.7M17.13 44.16a1 1 0 0 0-.9-.39 1 1 0 0 0-.4-.9 6.3 6.3 0 0 0-5.34-1.04c-2 .5-3.64 1.87-4.49 3.75l-5.91 13a1 1 0 0 0 1.32 1.33L14.42 54a6.7 6.7 0 0 0 3.75-4.5c.48-1.88.1-3.83-1.04-5.34m-.9 4.85a4.7 4.7 0 0 1-2.64 3.17l-10.58 4.8 4.81-10.57a4.7 4.7 0 0 1 4.28-2.78q.94 0 1.78.39l-.95 1.68a1 1 0 0 0 1.37 1.37l1.68-.96c.41.89.5 1.9.25 2.9"/><path d="M59.95.96a1 1 0 0 0-.91-.9c-.4-.04-9.66-.74-20.56 4.28a1 1 0 0 0-.3 1.61l15.86 15.86a1 1 0 0 0 1.62-.28c5.02-10.9 4.32-20.18 4.29-20.57m-5.52 18.4L40.63 5.58A44.5 44.5 0 0 1 58 2.01c.04 2.4-.18 9.36-3.56 17.36m-10.28-3.53a8.63 8.63 0 0 0-12.2 12.2 8.6 8.6 0 0 0 12.2 0 8.63 8.63 0 0 0 0-12.2m-1.41 10.78a6.63 6.63 0 1 1-9.37-9.39 6.63 6.63 0 0 1 9.37 9.4"/><path d="M40.05 23.93a2.81 2.81 0 1 1 0-3.98 1 1 0 1 0 1.41-1.42 4.82 4.82 0 1 0 0 6.8 1 1 0 1 0-1.41-1.4"/></g><defs><clipPath id="a"><path d="M0 0h60v60H0z"/></clipPath></defs></svg>
